<svg width="17" height="45" viewBox="0 0 17 45" fill="none" xmlns="http://www.w3.org/2000/svg">
<path fill-rule="evenodd" clip-rule="evenodd" d="M1 20.5831C1 7.50231 6.42166 0.445014 8.63885 0.444458C10.8563 0.445014 16.2777 7.50186 16.2777 20.5831C16.2777 33.8 11.5346 42.7601 11.3333 43.1351L11.1371 43.4997H6.14063L5.94444 43.1351C5.74311 42.76 1 33.8 1 20.5831ZM7.94467 2.28826V2.28819L7.9448 2.28815L7.94467 2.28826ZM7.94467 2.28826V24.0557H9.33356V2.28819C11.1113 3.87499 14.8891 9.64775 14.8891 20.5833C14.8891 24.2326 14.5054 27.5624 13.9585 30.4704C13.1547 29.3263 11.6773 27.769 8.98476 26.2308C2.43809 22.4895 2.51764 17.3521 2.52298 17.1353H2.52124C3.20353 8.41861 6.3648 3.69996 7.94467 2.28826ZM2.5248 24.2243C2.46577 23.4014 2.43105 22.5577 2.41195 21.6983C3.40505 23.5437 5.16716 25.6495 8.29533 27.4375C12.7407 29.9785 13.5018 32.4919 13.5209 32.5551L13.5211 32.5557C13.1808 34.0419 12.8076 35.3908 12.4343 36.5783C11.8492 35.5419 10.818 34.2676 8.9968 33.1825C3.51236 29.9169 2.64613 25.1789 2.5248 24.2243ZM9.33347 42.1113H10.2936L10.2934 42.111C10.5694 41.5415 11.1284 40.3228 11.7639 38.5693C11.6284 37.9912 10.9792 35.979 8.28471 34.3749C5.83516 32.9149 4.22404 31.1771 3.15982 29.5486C4.29698 36.2104 6.35951 40.8231 6.98449 42.1113H7.94458V37.25H9.33347V42.1113Z" fill="white"/>
<path d="M8.63885 0.444458L8.63888 0.319458L8.63882 0.319458L8.63885 0.444458ZM11.3333 43.1351L11.4433 43.1944L11.4434 43.1943L11.3333 43.1351ZM11.1371 43.4997V43.6247H11.2118L11.2471 43.5589L11.1371 43.4997ZM6.14063 43.4997L6.03055 43.5589L6.06594 43.6247H6.14063V43.4997ZM5.94444 43.1351L5.83431 43.1942L5.83437 43.1944L5.94444 43.1351ZM7.94467 2.28819L7.90439 2.16986L7.81967 2.19869V2.28819H7.94467ZM7.9448 2.28815L8.02807 2.38137L7.90452 2.16981L7.9448 2.28815ZM7.94467 24.0557H7.81967V24.1807H7.94467V24.0557ZM9.33356 24.0557V24.1807H9.45856V24.0557H9.33356ZM9.33356 2.28819L9.41679 2.19494L9.20856 2.00907V2.28819H9.33356ZM13.9585 30.4704L13.8563 30.5423L14.0266 30.7847L14.0814 30.4935L13.9585 30.4704ZM8.98476 26.2308L8.92273 26.3393L8.92275 26.3394L8.98476 26.2308ZM2.52298 17.1353L2.64794 17.1383L2.65109 17.0103H2.52298V17.1353ZM2.52124 17.1353L2.39662 17.1255L2.38608 17.2603H2.52124V17.1353ZM2.41195 21.6983L2.52203 21.6391L2.28698 21.7011L2.41195 21.6983ZM2.5248 24.2243L2.39993 24.2332L2.4008 24.24L2.5248 24.2243ZM8.29533 27.4375L8.2333 27.546H8.2333L8.29533 27.4375ZM13.5209 32.5551L13.4013 32.5914L13.4013 32.5915L13.5209 32.5551ZM13.5211 32.5557L13.643 32.5836L13.6504 32.5512L13.6407 32.5194L13.5211 32.5557ZM12.4343 36.5783L12.3255 36.6398L12.4671 36.8908L12.5536 36.6158L12.4343 36.5783ZM8.9968 33.1825L9.06078 33.0751L9.06075 33.0751L8.9968 33.1825ZM10.2936 42.1113V42.2363H10.5094L10.402 42.0491L10.2936 42.1113ZM9.33347 42.1113H9.20847V42.2363H9.33347V42.1113ZM10.2934 42.111L10.1809 42.0565L10.1521 42.1159L10.185 42.1732L10.2934 42.111ZM11.7639 38.5693L11.8814 38.6119L11.894 38.577L11.8856 38.5408L11.7639 38.5693ZM8.28471 34.3749L8.22072 34.4822L8.22077 34.4823L8.28471 34.3749ZM3.15982 29.5486L3.26446 29.4803L3.0366 29.5697L3.15982 29.5486ZM6.98449 42.1113L6.87203 42.1659L6.9062 42.2363H6.98449V42.1113ZM7.94458 42.1113V42.2363H8.06958V42.1113H7.94458ZM7.94458 37.25V37.125H7.81958V37.25H7.94458ZM9.33347 37.25H9.45847V37.125H9.33347V37.25ZM8.63882 0.319458C8.33024 0.319535 7.98025 0.441556 7.60923 0.66655C7.23676 0.892417 6.83456 1.22719 6.41914 1.66593C5.58816 2.54352 4.69578 3.84608 3.8753 5.55458C2.23389 8.97248 0.875 14.0257 0.875 20.5831H1.125C1.125 14.0597 2.47694 9.04389 4.10066 5.66281C4.91274 3.97181 5.79149 2.69239 6.60067 1.83781C7.00532 1.41046 7.39044 1.0916 7.73886 0.880316C8.08871 0.668162 8.39316 0.56952 8.63888 0.569458L8.63882 0.319458ZM16.4027 20.5831C16.4027 14.0255 15.0439 8.97226 13.4025 5.55441C12.582 3.84594 11.6897 2.54342 10.8587 1.66586C10.4433 1.22714 10.041 0.892384 9.66856 0.666529C9.2975 0.441545 8.94749 0.319535 8.63888 0.319458L8.63882 0.569458C8.88458 0.56952 9.18906 0.668159 9.53894 0.880301C9.88737 1.09157 10.2725 1.41042 10.6772 1.83775C11.4863 2.6923 12.3651 3.97167 13.1772 5.66264C14.8008 9.04367 16.1527 14.0595 16.1527 20.5831H16.4027ZM11.4434 43.1943C11.6499 42.8097 16.4027 33.8286 16.4027 20.5831H16.1527C16.1527 33.7714 11.4194 42.7105 11.2231 43.076L11.4434 43.1943ZM11.2471 43.5589L11.4433 43.1944L11.2232 43.0759L11.027 43.4405L11.2471 43.5589ZM6.14063 43.6247H11.1371V43.3747H6.14063V43.6247ZM5.83437 43.1944L6.03055 43.5589L6.2507 43.4405L6.05452 43.0759L5.83437 43.1944ZM0.875 20.5831C0.875 33.8286 5.62787 42.8096 5.83431 43.1942L6.05458 43.076C5.85835 42.7104 1.125 33.7714 1.125 20.5831H0.875ZM7.81967 2.28819V2.28826H8.06967V2.28819H7.81967ZM7.90452 2.16981L7.90439 2.16986L7.98494 2.40653L7.98507 2.40648L7.90452 2.16981ZM8.02794 2.38149L8.02807 2.38137L7.86152 2.19492L7.86139 2.19504L8.02794 2.38149ZM8.06967 24.0557V2.28826H7.81967V24.0557H8.06967ZM9.33356 23.9307H7.94467V24.1807H9.33356V23.9307ZM9.20856 2.28819V24.0557H9.45856V2.28819H9.20856ZM15.0141 20.5833C15.0141 9.62199 11.2277 3.81131 9.41679 2.19494L9.25032 2.38145C10.995 3.93867 14.7641 9.6735 14.7641 20.5833H15.0141ZM14.0814 30.4935C14.6295 27.5789 15.0141 24.2413 15.0141 20.5833H14.7641C14.7641 24.2238 14.3813 27.5459 13.8357 30.4473L14.0814 30.4935ZM8.92275 26.3394C11.6003 27.869 13.0636 29.4141 13.8563 30.5423L14.0608 30.3986C13.2458 29.2385 11.7542 27.669 9.04676 26.1223L8.92275 26.3394ZM2.39802 17.1322C2.39202 17.3758 2.32188 22.567 8.92273 26.3393L9.04678 26.1223C2.5543 22.4119 2.64326 17.3285 2.64794 17.1383L2.39802 17.1322ZM2.52124 17.2603H2.52298V17.0103H2.52124V17.2603ZM7.86138 2.19505C6.25165 3.63343 3.08074 8.38553 2.39662 17.1255L2.64586 17.145C3.32633 8.45169 6.47795 3.76649 8.02795 2.38147L7.86138 2.19505ZM2.28698 21.7011C2.30611 22.5619 2.34091 23.4078 2.40012 24.2332L2.64948 24.2153C2.59064 23.395 2.55599 22.5534 2.53692 21.6955L2.28698 21.7011ZM8.35736 27.329C5.24952 25.5525 3.50405 23.4639 2.52203 21.6391L2.30188 21.7575C3.30606 23.6235 5.08481 25.7464 8.2333 27.546L8.35736 27.329ZM13.6406 32.5189C13.6125 32.4264 12.8316 29.8865 8.35736 27.329L8.2333 27.546C12.6498 30.0705 13.391 32.5574 13.4013 32.5914L13.6406 32.5189ZM13.6407 32.5194L13.6405 32.5188L13.4013 32.5915L13.4015 32.5921L13.6407 32.5194ZM12.5536 36.6158C12.9278 35.4252 13.3019 34.0731 13.643 32.5836L13.3993 32.5278C13.0597 34.0107 12.6873 35.3564 12.3151 36.5408L12.5536 36.6158ZM8.93282 33.2899C10.7338 34.3629 11.7502 35.6207 12.3255 36.6398L12.5432 36.5169C11.9483 35.4631 10.9022 34.1722 9.06078 33.0751L8.93282 33.2899ZM2.4008 24.24C2.52473 25.2152 3.40259 29.997 8.93285 33.2899L9.06075 33.0751C3.62212 29.8367 2.76753 25.1427 2.6488 24.2085L2.4008 24.24ZM10.2936 41.9863H9.33347V42.2363H10.2936V41.9863ZM10.185 42.1732L10.1851 42.1735L10.402 42.0491L10.4018 42.0488L10.185 42.1732ZM11.6463 38.5267C11.0126 40.2756 10.4553 41.4903 10.1809 42.0565L10.4059 42.1655C10.6835 41.5927 11.2443 40.3699 11.8814 38.6119L11.6463 38.5267ZM8.22077 34.4823C10.8794 36.0651 11.5125 38.0444 11.6422 38.5978L11.8856 38.5408C11.7444 37.938 11.0789 35.8929 8.34866 34.2675L8.22077 34.4823ZM3.05518 29.617C4.12907 31.2603 5.7537 33.0119 8.22072 34.4822L8.34871 34.2675C5.91661 32.818 4.31902 31.094 3.26446 29.4803L3.05518 29.617ZM7.09695 42.0567C6.47556 40.776 4.41769 36.1747 3.28304 29.5276L3.0366 29.5697C4.17627 36.2461 6.24346 40.8703 6.87203 42.1659L7.09695 42.0567ZM7.94458 41.9863H6.98449V42.2363H7.94458V41.9863ZM7.81958 37.25V42.1113H8.06958V37.25H7.81958ZM9.33347 37.125H7.94458V37.375H9.33347V37.125ZM9.45847 42.1113V37.25H9.20847V42.1113H9.45847Z" fill="black"/>
</svg>
