<svg width="39" height="40" viewBox="0 0 39 40" fill="none" xmlns="http://www.w3.org/2000/svg">
<path d="M38.037 32.1881H29.7502C29.4851 32.1881 29.2688 32.4061 29.2688 32.6734C29.2688 32.9407 29.4851 33.1587 29.7502 33.1587H38.037C38.3022 33.1587 38.5185 32.9407 38.5185 32.6734C38.5185 32.4061 38.3022 32.1881 38.037 32.1881Z" fill="white"/>
<path d="M38.037 38.34H28.7459C28.4807 38.34 28.2644 38.558 28.2644 38.8253C28.2644 39.0926 28.4807 39.3106 28.7459 39.3106H38.037C38.3022 39.3106 38.5185 39.0926 38.5185 38.8253C38.5185 38.558 38.3022 38.34 38.037 38.34Z" fill="white"/>
<path d="M0.481481 35.6916H7.9743C8.23949 35.6916 8.45578 35.4736 8.45578 35.2063C8.45578 34.939 8.23949 34.7209 7.9743 34.7209H0.481481C0.216291 34.7209 0 34.939 0 35.2063C0 35.4755 0.216291 35.6916 0.481481 35.6916Z" fill="white"/>
<path fill-rule="evenodd" clip-rule="evenodd" d="M3.74481 0.53458C3.93098 0.441691 4.15292 0.479604 4.29962 0.627475L4.29986 0.627703C4.44468 0.775549 4.48229 1.00114 4.38825 1.18883C4.08921 1.79168 3.93875 2.43434 3.93875 3.09976C3.93875 5.47703 5.86843 7.41262 8.23823 7.41262C8.90215 7.41262 9.54348 7.25906 10.1453 6.95953C10.3315 6.86664 10.5534 6.90455 10.7001 7.05242C10.8468 7.20027 10.8826 7.42587 10.7904 7.61165C9.89328 9.42591 8.08772 10.552 6.07903 10.552C3.1768 10.552 0.816437 8.1802 0.816437 5.26641C0.816437 3.2474 1.93925 1.43508 3.74481 0.53458ZM9.12763 8.30699C8.83421 8.35818 8.53892 8.38283 8.23799 8.38283L8.23811 8.383C5.33594 8.383 2.97557 6.01315 2.97745 3.09936C2.97745 2.79604 3.0019 2.49838 3.05268 2.20453C2.24772 2.99885 1.7794 4.09081 1.7794 5.2662C1.7794 7.64536 3.70908 9.58095 6.07889 9.58095C7.25062 9.58095 8.33583 9.11272 9.12763 8.30699Z" fill="white"/>
<path fill-rule="evenodd" clip-rule="evenodd" d="M38.039 24.4099H38.0371C37.7719 24.4099 37.5575 24.6261 37.5556 24.8934L37.5443 27.4848L19.677 0.923499C19.4983 0.656197 19.0601 0.656197 18.8796 0.923499L1.02529 27.4659L1.03658 24.7151C1.03846 24.4478 0.822169 24.2279 0.556979 24.2279H0.555098C0.289908 24.2279 0.0754995 24.4441 0.0736169 24.7114L0.05669 29.0527C0.0548088 29.2669 0.193989 29.4546 0.395229 29.519C0.442249 29.5342 0.489267 29.5399 0.538171 29.5399C0.694277 29.5399 0.84474 29.4621 0.936896 29.3275L3.74677 25.1512V29.0564C3.74677 29.3237 3.96306 29.5418 4.22826 29.5418H14.9523C15.4996 31.3314 17.1603 32.6357 19.1201 32.6357C19.1266 32.6357 19.1327 32.6352 19.1388 32.6347L19.1389 32.6347C19.145 32.6342 19.1511 32.6338 19.1577 32.6338C19.1605 32.6338 19.1638 32.6342 19.1671 32.6347L19.1671 32.6347L19.1672 32.6347C19.1704 32.6352 19.1737 32.6357 19.1765 32.6357C19.1825 32.6357 19.1884 32.6351 19.1944 32.6343L19.2047 32.6328C19.2141 32.6314 19.2235 32.63 19.2329 32.63C21.1419 32.5807 22.75 31.2953 23.2861 29.5418H34.3303C34.5955 29.5418 34.8118 29.3237 34.8118 29.0564V25.1511L37.6216 29.3275C37.7401 29.5038 37.9583 29.5816 38.1595 29.519C38.3608 29.4564 38.5 29.2688 38.5 29.0564L38.5188 24.8971C38.5207 24.6279 38.3062 24.4118 38.0392 24.4099L38.039 24.4099ZM19.2328 31.6596L19.2274 31.66C19.2031 31.6617 19.1803 31.6634 19.1575 31.6634C18.3225 31.652 17.6454 30.9695 17.6454 30.1316C17.6454 29.58 18.4504 28.3098 19.1764 27.3524C19.9023 28.3098 20.7073 29.5799 20.7073 30.1316C20.7073 30.9563 20.0509 31.6293 19.2328 31.6596L19.2328 31.6596ZM21.6684 30.1297C21.6684 30.2738 21.6496 30.4103 21.627 30.5468L21.627 30.5468C22.1781 29.9402 22.5166 29.1382 22.5129 28.2567C22.5129 26.8027 20.3236 23.7088 19.1161 22.1694C17.9106 23.7088 15.7194 26.8045 15.7194 28.2567C15.7194 29.2122 16.1163 30.0766 16.7501 30.6965C16.7087 30.5126 16.6805 30.325 16.6805 30.1297C16.6805 28.9012 18.4503 26.6926 18.8039 26.2623C18.9864 26.0405 19.3625 26.0405 19.545 26.2623C19.9005 26.6927 21.6684 28.9013 21.6684 30.1297ZM19.4905 21.0889C19.308 20.8671 18.9319 20.8671 18.7494 21.0889C18.3413 21.5837 14.7602 25.9969 14.7602 28.257C14.7602 28.3331 14.7651 28.4083 14.7699 28.4831V28.4831C14.7718 28.5127 14.7737 28.5422 14.7753 28.5717H9.92677V25.3717C10.555 24.8598 12.637 23.0854 14.7454 20.452C16.457 18.3155 18.4111 15.2955 19.2969 11.8527C20.1828 15.2973 22.1369 18.3152 23.8484 20.452C25.9568 23.0852 28.0388 24.8597 28.6671 25.3717V28.5717H23.4628C23.4703 28.4675 23.4778 28.3632 23.4778 28.257C23.4797 25.9973 19.8987 21.5839 19.4906 21.0889H19.4905ZM29.6278 28.5715H33.8482L33.8507 23.7203L19.2801 2.06108L4.70954 23.7203V28.5715H8.96199V25.1364C8.96199 24.9847 9.03158 24.8426 9.15006 24.7516L9.15041 24.7513C9.26669 24.6594 18.8134 17.117 18.8134 8.19016C18.8134 7.92285 19.0297 7.70484 19.2949 7.70484C19.5601 7.70484 19.7764 7.92285 19.7764 8.19016C19.7764 17.114 29.3165 24.6542 29.4392 24.7512L29.4397 24.7516C29.5582 24.8445 29.6278 24.9866 29.6278 25.1364V28.5715Z" fill="white"/>
<path fill-rule="evenodd" clip-rule="evenodd" d="M26.596 34.433C26.6393 34.5543 26.6299 34.6908 26.5735 34.8064L26.5738 34.8064C26.5155 34.924 26.4158 35.0131 26.2917 35.0548L24.5106 35.6482L26.2221 36.1354C26.3462 36.1714 26.4515 36.2548 26.5136 36.3686C26.5757 36.4823 26.5888 36.615 26.5531 36.7401L25.9381 38.8293C25.8761 39.0397 25.6861 39.1762 25.4773 39.1762C25.4341 39.1762 25.3889 39.1686 25.3457 39.1572L19.2179 37.4112L13.5941 39.2861C13.5452 39.3032 13.4945 39.3108 13.4437 39.3108C13.2443 39.3108 13.0581 39.1857 12.9923 38.9847L12.2832 36.924C12.24 36.8027 12.2494 36.6662 12.3058 36.5506C12.3622 36.433 12.4638 36.3458 12.586 36.3041L14.0718 35.8093L12.287 35.3012C12.1628 35.2652 12.0575 35.1818 11.9955 35.0681C11.9334 34.9543 11.9202 34.8216 11.956 34.6965L12.571 32.6074C12.6462 32.3514 12.9095 32.2055 13.1634 32.2775L19.3644 34.0443L25.2813 32.0708C25.5315 31.9874 25.8004 32.122 25.8869 32.3723L26.596 34.433ZM13.3592 33.341L13.0169 34.4993L15.7026 35.2652L17.7339 34.5884L13.3592 33.341ZM25.4901 36.9354L25.1478 38.0937L20.8483 36.8671L22.8796 36.1904L25.4901 36.9354ZM13.3499 37.0718L13.7429 38.215L25.5262 34.287L25.1331 33.1438L13.3499 37.0718Z" fill="white"/>
</svg>
